<?xml version="1.0" encoding="UTF-8" standalone="yes"?>
<!-- Created with sK1/UniConvertor (http://sk1project.org/) -->
<svg xmlns="http://www.w3.org/2000/svg" xmlns:xlink="http://www.w3.org/1999/xlink"
  width="2666.67pt" height="1493.33pt" viewBox="0 0 2666.67 1493.33"
  fill-rule="evenodd">
<g>
<g>
<g>
<g>
<g>
<g>
<path style="stroke:none; fill:#079f48" d="M 135.251 852.53C 123.534 848.591 113.31 842.201 104.578 833.359C 95.8407 824.523 88.9215 813.02 83.8087 798.852C 78.6968 784.688 76.1404 767.275 76.1404 746.611C 76.1404 725.952 78.6968 708.484 83.8087 694.21C 88.9215 679.942 95.8407 668.439 104.578 659.702C 113.31 650.971 123.534 644.635 135.251 640.691C 146.964 636.752 159.425 634.78 172.635 634.78L 256.349 634.78L 256.349 678.234L 178.706 678.234C 171.462 678.234 164.647 679.302 158.256 681.429C 151.866 683.561 146.275 687.236 141.482 692.453C 136.689 697.675 132.905 704.704 130.14 713.541C 127.368 722.383 125.985 733.406 125.985 746.611C 125.985 759.821 127.368 770.789 130.14 779.521C 132.905 788.258 136.689 795.287 141.482 800.609C 146.275 805.935 151.866 809.665 158.256 811.792C 164.647 813.924 171.462 814.987 178.706 814.987L 256.349 814.987L 256.349 1499.73L 40.478 1499.73C 159.425 858.441 146.964 856.475 135.251 852.53"/>
</g>
<g>
<path style="stroke:none; fill:#079f48" d="M 343.629 872.959C 348.989 872.959 353.679 871.877 357.699 869.721C 361.72 867.56 363.954 863.802 364.4 858.441L 331.344 858.441C 323.304 858.441 315.969 857.548 309.345 855.762C 302.718 853.974 297.061 851.036 292.37 846.938C 287.679 842.845 284.03 837.523 281.427 830.969C 278.82 824.419 277.518 816.379 277.518 806.848L 277.518 723.763L 310.126 723.763L 310.126 1421.75C 310.126 1430.24 312.283 1436.12 316.604 1439.39C 320.921 1442.67 327.1 1444.31 335.142 1444.31L 22.49 1444.31L 22.49 1331.79L 57.798 1331.79L 57.798 1475.2C 57.798 1483.68 56.6048 1490.83 54.2248 1496.64C 51.8411 1502.44 48.6031 1507.13 44.509 1510.71C 40.4121 1514.28 35.6106 1516.85 30.1034 1518.41C 24.5926 1519.98 18.7124 1520.76 12.459 1520.76L -62.152 1520.76L -62.152 1493.33L 343.629 872.959z"/>
</g>
<g>
<path style="stroke:none; fill:#079f48" d="M 480.652 829.406C 484.655 829.406 488.438 828.813 491.997 827.619C 495.557 826.43 498.635 824.38 501.231 821.477C 503.827 818.574 505.904 814.63 507.46 809.64C 509.017 804.653 509.799 798.438 509.799 790.99C 509.799 783.547 509.017 777.366 507.46 772.453C 505.904 767.539 503.827 763.596 501.231 760.616C 498.635 757.639 495.557 755.556 491.997 754.361C 488.438 753.172 484.655 752.575 480.652 752.575L -31.802 752.575L -31.802 1493.33L 480.652 829.406zM 418.672 680.434L 451.281 680.434L 451.281 1378.95L 3.903 1378.95C 11.9222 1378.95 19.4602 1380.1 26.5162 1382.41C 33.573 1384.72 39.7359 1388.51 45.0094 1393.8C 50.2792 1399.09 54.4388 1406.01 57.4856 1414.57C 60.5287 1423.13 62.0535 1433.67 62.0535 1446.17C 62.0535 1458.68 60.5251 1469.22 57.4746 1477.78C 54.4213 1486.34 50.2505 1493.3 44.9669 1498.66C 39.6805 1504.02 33.4991 1507.85 26.4294 1510.16C 19.3559 1512.47 11.7994 1513.62 3.75893 1513.62L -61.6821 1513.62L 418.672 680.434z"/>
</g>
<g>
<path style="stroke:none; fill:#079f48" d="M 586.517 854.979C 579.445 852.673 573.263 848.837 567.981 843.476C 562.693 838.117 558.523 831.158 555.472 822.594C 552.419 814.033 550.894 803.498 550.894 790.991C 550.894 778.483 552.419 767.951 555.472 759.387C 558.522 750.827 562.693 743.903 567.981 738.616C 573.263 733.332 579.445 729.536 586.517 727.225C 593.588 724.919 601.146 723.763 609.187 723.763L 79.444 723.763L 79.444 1382.45L 28.658 1382.45C 21.9576 1382.45 16.0737 1384.21 11.0135 1387.7C 590.277 761.324 586.776 767.539 584.842 776.473L 79.444 776.473L 79.444 1439.77L -1.814 1439.77C -0.920002 1444.39 0.420072 1448.22 2.20622 1451.27C 3.99422 1454.32 6.11562 1456.78 8.57227 1458.64C 11.0298 1460.5 13.7442 1461.81 16.7245 1462.55C 19.7011 1463.29 22.9012 1463.67 26.3285 1463.67L 79.444 1463.67L 79.444 1497.08L 24.546 1497.08C 601.146 858.441 593.588 857.289 586.517 854.979"/>
</g>
<g>
<path style="stroke:none; fill:#079f48" d="M 679.316 775.133C 679.316 765.605 680.841 757.565 683.894 751.012C 686.944 744.461 691.114 739.175 696.402 735.154C 701.686 731.134 707.828 728.231 714.828 726.443C 721.825 724.657 729.346 723.764 737.386 723.764L 781.386 723.764L 781.386 1498.89L 75.211 1498.89L 75.211 1471.2L 67.6176 1471.2C 63.5973 1471.2 59.7997 1471.57 56.2265 1472.32C 726.218 754.438 723.127 755.702 720.524 757.489C 717.917 759.275 715.833 761.62 714.269 764.525C 712.707 767.427 711.924 770.966 711.924 775.133L 711.924 1583.54L 0 1583.54L 679.316 775.133z"/>
</g>
<g>
<path style="stroke:none; fill:#079f48" d="M 799.252 829.406L 869.607 829.406C 873.774 829.406 877.386 828.551 880.44 826.838C 883.49 825.128 885.018 822.112 885.018 817.793C 885.018 813.179 883.49 809.976 880.44 808.189C 877.386 806.402 873.774 805.509 869.607 805.509L 41.838 805.509C 35.2836 805.509 29.4042 804.838 24.1926 803.498C 18.9792 802.158 14.5517 799.89 10.9046 796.686C 7.25375 793.486 4.42768 789.281 2.41711 784.067C 0.406536 778.857 -0.598289 772.307 -0.598289 764.412C -0.598289 756.671 0.406536 750.195 2.41711 744.982C 4.42768 739.771 7.25375 735.6 10.9046 732.474C 14.5517 729.347 18.9792 727.114 24.1926 725.774C 29.4042 724.433 35.2836 723.763 41.838 723.763L 115.766 723.763L 115.766 1410.14L 45.708 1410.14C 41.3867 1410.14 37.7017 1411.04 34.6522 1412.82C 31.598 1414.61 30.0732 1417.66 30.0732 1421.98C 30.0732 1426.6 31.598 1429.76 34.6522 1431.47C 37.7017 1433.18 41.3867 1434.04 45.708 1434.04L 77.4228 1434.04C 83.823 1434.04 89.6691 1434.71 94.9564 1436.05C 100.239 1437.39 104.706 1439.7 108.356 1442.97C 112.002 1446.25 114.834 1450.53 116.843 1455.82C 118.853 1461.1 119.858 1467.62 119.858 1475.36C 119.858 1483.1 118.853 1489.58 116.843 1494.79C 114.834 1500 112.002 1504.17 108.356 1507.3C 104.706 1510.42 100.239 1512.66 94.9564 1514C 89.6691 1515.34 83.823 1516.01 77.4228 1516.01L 0 1516.01L 799.252 829.406z"/>
</g>
<g>
<path style="stroke:none; fill:#079f48" d="M 963.075 854.979C 956.002 852.673 949.821 848.837 944.538 843.476C 939.251 838.117 935.08 831.158 932.029 822.594C 928.976 814.033 927.451 803.498 927.451 790.991C 927.451 778.483 928.976 767.951 932.029 759.387C 935.08 750.827 939.251 743.903 944.538 738.616C 949.821 733.332 956.002 729.536 963.075 727.225C 970.145 724.919 977.704 723.763 985.744 723.763L 79.444 723.763L 79.444 1382.45L 28.658 1382.45C 24.6369 1382.45 20.8401 1383.05 17.2669 1384.24C 974.577 755.556 971.45 757.639 968.77 760.615C 966.09 763.595 963.969 767.539 962.404 772.452C 960.841 777.367 960.059 783.547 960.059 790.991C 960.059 798.438 960.841 804.654 962.404 809.64C 963.969 814.63 966.09 818.575 968.77 821.477C 971.45 824.38 974.577 826.429 978.151 827.619C 981.724 828.812 985.521 829.407 989.542 829.407L 79.444 829.407L 79.444 1497.08L 24.546 1497.08C 977.704 858.441 970.145 857.289 963.075 854.979"/>
</g>
<g>
<path style="stroke:none; fill:#079f48" d="M 1114.84 832.756C 1119.45 832.756 1123.77 832.086 1127.79 830.746C 1131.81 829.407 1135.31 827.1 1138.29 823.822C 1141.27 820.55 1143.61 816.267 1145.33 810.981C 1147.04 805.697 1147.9 799.031 1147.9 790.991C 1147.9 782.95 1147.04 776.288 1145.33 771.001C 1143.61 765.718 1141.27 761.474 1138.29 758.27C 1135.31 755.071 1131.81 752.798 1127.79 751.459C 1123.77 750.118 1119.45 749.448 1114.84 749.448C 1110.22 749.448 1105.91 750.118 1101.89 751.459C 1097.87 752.798 1094.37 755.071 1091.39 758.27C 1088.41 761.474 1086.06 765.718 1084.35 771.001C 1082.64 776.288 1081.78 782.95 1081.78 790.991C 1081.78 799.031 1082.64 805.697 1084.35 810.981C 1086.06 816.267 1088.41 820.55 1091.39 823.822C 1094.37 827.1 1097.87 829.407 1101.89 830.746C 1105.91 832.086 1110.22 832.756 1114.84 832.756M 1049.18 790.991C 1049.18 778.037 1050.88 767.093 1054.3 758.159C 1057.72 749.225 1062.4 741.966 1068.35 736.383C 1074.3 730.798 1081.24 726.744 1089.2 724.21C 1097.15 721.68 1105.66 720.413 1114.73 720.413C 1123.65 720.413 1132.08 721.68 1140.04 724.21C 1147.99 726.744 1154.97 730.798 1160.99 736.383C 1167.01 741.966 1171.77 749.225 1175.26 758.159C 1178.76 767.093 1180.5 778.037 1180.5 790.991C 1180.5 803.945 1178.76 814.927 1175.26 823.935C 1171.77 832.945 1167.01 840.239 1160.99 845.822C 1154.97 851.406 1147.99 855.426 1140.04 857.884C 1132.08 860.34 1123.65 861.568 1114.73 861.568C 1105.66 861.568 1097.15 860.34 1089.2 857.884C 1081.24 855.426 1074.3 851.406 1068.35 845.822C 1062.4 840.239 1057.72 832.945 1054.3 823.935C 1050.88 814.927 1049.18 803.945 1049.18 790.991"/>
</g>
<g>
<path style="stroke:none; fill:#079f48" d="M 1257.89 829.406C 1261.9 829.406 1265.68 828.813 1269.24 827.619C 1272.8 826.43 1275.88 824.38 1278.47 821.477C 1281.07 818.574 1283.15 814.63 1284.7 809.64C 1286.26 804.653 1287.04 798.438 1287.04 790.99C 1287.04 783.547 1286.26 777.366 1284.7 772.453C 1283.15 767.539 1281.07 763.596 1278.47 760.616C 1275.88 757.639 1272.8 755.556 1269.24 754.361C 1265.68 753.172 1261.9 752.575 1257.89 752.575L -31.802 752.575L -31.802 1493.33L 1257.89 829.406zM 1228.52 901.77L -67.111 901.77L -67.111 1378.95L 3.748 1378.95C 11.7875 1378.95 19.344 1380.1 26.4166 1382.41C 33.4873 1384.72 39.6686 1388.51 44.955 1393.8C 50.2387 1399.09 54.4094 1406.01 57.4627 1414.57C 60.5132 1423.13 62.0417 1433.67 62.0417 1446.17C 62.0417 1458.68 60.5169 1469.22 57.4738 1477.78C 54.427 1486.34 50.2673 1493.3 44.9975 1498.66C 39.724 1504.02 33.5612 1507.85 26.5043 1510.16C 19.4493 1512.47 11.9104 1513.62 3.89115 1513.62L -29.0843 1513.62L 1228.52 901.77z"/>
</g>
<g>
<path style="stroke:none; fill:#079f48" d="M 1363.76 854.979C 1356.69 852.673 1350.51 848.837 1345.22 843.476C 1339.94 838.117 1335.76 831.158 1332.71 822.594C 1329.66 814.033 1328.14 803.498 1328.14 790.991C 1328.14 778.483 1329.66 767.951 1332.71 759.387C 1335.76 750.827 1339.94 743.903 1345.22 738.616C 1350.51 733.332 1356.69 729.536 1363.76 727.225C 1370.83 724.919 1378.39 723.763 1386.43 723.763L 79.444 723.763L 79.444 1382.45L 28.658 1382.45C 21.9576 1382.45 16.0737 1384.21 11.0135 1387.7C 1367.52 761.324 1364.02 767.539 1362.08 776.473L 79.444 776.473L 79.444 1439.77L -1.814 1439.77C -0.920002 1444.39 0.420072 1448.22 2.20622 1451.27C 3.99422 1454.32 6.11562 1456.78 8.57227 1458.64C 11.0298 1460.5 13.7442 1461.81 16.7245 1462.55C 19.7011 1463.29 22.9012 1463.67 26.3285 1463.67L 79.444 1463.67L 79.444 1497.08L 24.546 1497.08C 1378.39 858.441 1370.83 857.289 1363.76 854.979"/>
</g>
</g>
<text style="stroke:none; fill:#084779; font-family:Raleway-LightItalic; font-size:246.09387207" transform="matrix(1.06667 0 0 1.06667 1452.81 855.353)">
Academy
</text >
</g>
</g>
</g>
</g>
</svg>