<?xml version="1.0" encoding="UTF-8" standalone="no"?>
<!-- Created with Inkscape (http://www.inkscape.org/) -->

<svg
   xmlns:dc="http://purl.org/dc/elements/1.1/"
   xmlns:cc="http://creativecommons.org/ns#"
   xmlns:rdf="http://www.w3.org/1999/02/22-rdf-syntax-ns#"
   xmlns:svg="http://www.w3.org/2000/svg"
   xmlns="http://www.w3.org/2000/svg"
   xmlns:sodipodi="http://sodipodi.sourceforge.net/DTD/sodipodi-0.dtd"
   xmlns:inkscape="http://www.inkscape.org/namespaces/inkscape"
   version="1.1"
   id="svg2"
   xml:space="preserve"
   width="3333.3333"
   height="1866.6667"
   viewBox="0 0 3333.3333 1866.6667"
   sodipodi:docname="Cybersope Academy Logo with White Hat Shield.svg"
   inkscape:version="0.92.2 (5c3e80d, 2017-08-06)"><metadata
     id="metadata8"><rdf:RDF><cc:Work
         rdf:about=""><dc:format>image/svg+xml</dc:format><dc:type
           rdf:resource="http://purl.org/dc/dcmitype/StillImage" /><dc:title /></cc:Work></rdf:RDF></metadata><defs
     id="defs6"><clipPath
       clipPathUnits="userSpaceOnUse"
       id="clipPath22"><path
         d="M 0,1400 H 2500 V 0 H 0 Z"
         id="path20"
         inkscape:connector-curvature="0" /></clipPath></defs><sodipodi:namedview
     pagecolor="#ffffff"
     bordercolor="#666666"
     borderopacity="1"
     objecttolerance="10"
     gridtolerance="10"
     guidetolerance="10"
     inkscape:pageopacity="0"
     inkscape:pageshadow="2"
     inkscape:window-width="1440"
     inkscape:window-height="878"
     id="namedview4"
     showgrid="false"
     inkscape:measure-start="364.583,929.932"
     inkscape:measure-end="380.522,929.932"
     inkscape:zoom="0.28080001"
     inkscape:cx="1711.1823"
     inkscape:cy="933.33337"
     inkscape:window-x="1358"
     inkscape:window-y="-8"
     inkscape:window-maximized="1"
     inkscape:current-layer="g18"
     inkscape:snap-global="true"
     inkscape:snap-bbox="true"
     inkscape:bbox-paths="false"
     inkscape:bbox-nodes="false"
     inkscape:snap-bbox-edge-midpoints="false"
     inkscape:snap-intersection-paths="true" /><g
     id="g10"
     inkscape:groupmode="layer"
     inkscape:label="New_vector"
     transform="matrix(1.3333333,0,0,-1.3333333,0,1866.6667)"><g
       id="g16"><g
         id="g18"
         clip-path="url(#clipPath22)"><g
           id="g96"
           transform="matrix(0.86583,0,0,0.86583,2109.4546,684.25539)"
           inkscape:export-xdpi="10.067767"
           inkscape:export-ydpi="10.067767" /><g
           id="g1099"
           transform="matrix(1.2,0,0,1.2,25.05071,-138.87735)"
           inkscape:export-xdpi="55.536663"
           inkscape:export-ydpi="55.536663"><g
             inkscape:export-ydpi="7.5692205"
             inkscape:export-xdpi="7.5692205"
             transform="matrix(0.8,0,0,0.8,182.66071,134.3446)"
             id="g4573"><g
               id="g52"
               transform="matrix(0.86583,0,0,0.86583,183.79825,600.75283)"
               inkscape:export-xdpi="10.067767"
               inkscape:export-ydpi="10.067767"><path
                 d="m 0,0 c -12.687,4.265 -23.758,11.184 -33.213,20.758 -9.46,9.568 -16.952,22.023 -22.488,37.364 -5.535,15.336 -8.303,34.191 -8.303,56.565 0,22.369 2.768,41.283 8.303,56.738 5.536,15.45 13.028,27.905 22.488,37.365 9.455,9.454 20.526,16.314 33.213,20.585 12.682,4.265 26.174,6.4 40.478,6.4 h 90.643 v -47.051 h -84.07 c -7.843,0 -15.222,-1.157 -22.142,-3.46 -6.919,-2.308 -12.973,-6.287 -18.163,-11.936 -5.189,-5.654 -9.287,-13.265 -12.281,-22.834 -3.001,-9.573 -4.498,-21.509 -4.498,-35.807 0,-14.303 1.497,-26.179 4.498,-35.634 2.994,-9.46 7.092,-17.071 12.281,-22.834 5.19,-5.767 11.244,-9.805 18.163,-12.108 6.92,-2.309 14.299,-3.46 22.142,-3.46 h 84.07 V -6.4 H 40.478 C 26.174,-6.4 12.682,-4.271 0,0"
                 style="fill:#09a14a;fill-opacity:1;fill-rule:nonzero;stroke:none"
                 id="path54"
                 inkscape:connector-curvature="0" /></g><g
               id="g56"
               transform="matrix(0.86583,0,0,0.86583,379.15234,581.60059)"
               inkscape:export-xdpi="10.067767"
               inkscape:export-ydpi="10.067767"><path
                 d="m 0,0 c 5.803,0 10.882,1.172 15.235,3.507 4.353,2.339 6.772,6.408 7.255,12.213 h -35.792 c -8.706,0 -16.648,0.967 -23.82,2.901 -7.176,1.936 -13.301,5.117 -18.38,9.554 -5.079,4.432 -9.031,10.195 -11.849,17.291 -2.823,7.092 -4.233,15.798 -4.233,26.118 v 89.962 h 35.308 V 71.584 c 0,-9.19 2.335,-15.561 7.014,-19.105 4.674,-3.548 11.365,-5.321 20.072,-5.321 H 22.49 V 161.546 H 57.798 V 18.138 c 0,-9.19 -1.292,-16.928 -3.869,-23.217 -2.581,-6.286 -6.087,-11.365 -10.52,-15.234 -4.436,-3.869 -9.635,-6.651 -15.598,-8.344 -5.967,-1.693 -12.334,-2.539 -19.105,-2.539 H -62.152 V 0 Z"
                 style="fill:#09a14a;fill-opacity:1;fill-rule:nonzero;stroke:none"
                 id="path58"
                 inkscape:connector-curvature="0" /></g><g
               id="g60"
               transform="matrix(0.86583,0,0,0.86583,507.61148,622.43149)"
               inkscape:export-xdpi="10.067767"
               inkscape:export-ydpi="10.067767"><path
                 d="m 0,0 c 4.334,0 8.43,0.643 12.284,1.935 3.855,1.288 7.187,3.507 9.998,6.651 2.811,3.143 5.06,7.414 6.745,12.817 1.686,5.399 2.532,12.129 2.532,20.193 0,8.06 -0.846,14.752 -2.532,20.072 -1.685,5.321 -3.934,9.59 -6.745,12.817 -2.811,3.223 -6.143,5.479 -9.998,6.772 C 8.43,82.545 4.334,83.191 0,83.191 H -31.802 V 0 Z m -67.111,161.304 h 35.309 V 114.388 H 3.903 c 8.683,0 16.845,-1.251 24.485,-3.749 7.641,-2.501 14.314,-6.612 20.024,-12.333 5.706,-5.725 10.21,-13.222 13.509,-22.491 3.295,-9.272 4.946,-20.677 4.946,-34.219 0,-13.543 -1.655,-24.95 -4.958,-34.22 -3.306,-9.272 -7.822,-16.808 -13.543,-22.611 -5.724,-5.804 -12.417,-9.957 -20.072,-12.454 -7.659,-2.502 -15.841,-3.749 -24.547,-3.749 h -70.858 z"
                 style="fill:#09a14a;fill-opacity:1;fill-rule:nonzero;stroke:none"
                 id="path62"
                 inkscape:connector-curvature="0" /></g><g
               id="g64"
               transform="matrix(0.86583,0,0,0.86583,606.85992,598.45717)"
               inkscape:export-xdpi="10.067767"
               inkscape:export-ydpi="10.067767"><path
                 d="m 0,0 c -7.658,2.497 -14.351,6.65 -20.071,12.455 -5.725,5.803 -10.241,13.338 -13.544,22.611 -3.306,9.269 -4.957,20.676 -4.957,34.219 0,13.543 1.651,24.947 4.957,34.22 3.303,9.268 7.819,16.765 13.544,22.49 5.72,5.721 12.413,9.832 20.071,12.334 7.656,2.497 15.84,3.748 24.546,3.748 H 79.444 V 110.881 H 28.658 c -7.255,0 -13.626,-1.898 -19.105,-5.683 C 4.071,101.407 0.28,94.678 -1.814,85.005 H 79.444 V 53.565 H -1.814 c 0.968,-4.999 2.419,-9.152 4.353,-12.453 1.936,-3.307 4.233,-5.967 6.893,-7.98 2.661,-2.019 5.6,-3.428 8.827,-4.233 3.223,-0.808 6.688,-1.21 10.399,-1.21 H 79.444 V -3.749 H 24.546 C 15.84,-3.749 7.656,-2.501 0,0"
                 style="fill:#09a14a;fill-opacity:1;fill-rule:nonzero;stroke:none"
                 id="path66"
                 inkscape:connector-curvature="0" /></g><g
               id="g68"
               transform="matrix(0.86583,0,0,0.86583,693.85861,673.31242)"
               inkscape:export-xdpi="10.067767"
               inkscape:export-ydpi="10.067767"><path
                 d="m 0,0 c 0,10.317 1.651,19.023 4.957,26.118 3.303,7.093 7.818,12.817 13.543,17.171 5.722,4.353 12.372,7.496 19.952,9.432 7.576,1.934 15.719,2.901 24.425,2.901 h 47.642 V -5.561 H 75.211 v 29.987 h -8.222 c -4.353,0 -8.465,-0.405 -12.334,-1.21 C 50.785,22.408 47.438,21.04 44.619,19.105 41.796,17.171 39.54,14.632 37.847,11.487 36.155,8.344 35.307,4.512 35.307,0 V -90.204 H 0 Z"
                 style="fill:#09a14a;fill-opacity:1;fill-rule:nonzero;stroke:none"
                 id="path70"
                 inkscape:connector-curvature="0" /></g><g
               id="g72"
               transform="matrix(0.86583,0,0,0.86583,806.29893,622.43149)"
               inkscape:export-xdpi="10.067767"
               inkscape:export-ydpi="10.067767"><path
                 d="m 0,0 h 76.179 c 4.511,0 8.422,0.926 11.729,2.781 3.303,1.852 4.957,5.117 4.957,9.794 0,4.996 -1.654,8.464 -4.957,10.399 -3.307,1.935 -7.218,2.902 -11.729,2.902 H 41.838 c -7.097,0 -13.463,0.726 -19.106,2.177 -5.645,1.451 -10.439,3.907 -14.388,7.376 -3.953,3.465 -7.013,8.018 -9.19,13.663 -2.177,5.642 -3.265,12.734 -3.265,21.282 0,8.382 1.088,15.394 3.265,21.039 2.177,5.642 5.237,10.158 9.19,13.543 3.949,3.386 8.743,5.804 14.388,7.255 5.643,1.452 12.009,2.177 19.106,2.177 h 80.047 V 83.191 H 45.708 c -4.679,0 -8.669,-0.967 -11.971,-2.902 -3.307,-1.935 -4.958,-5.24 -4.958,-9.915 0,-4.999 1.651,-8.426 4.958,-10.277 3.302,-1.856 7.292,-2.782 11.971,-2.782 h 34.34 c 6.93,0 13.26,-0.725 18.985,-2.177 5.72,-1.451 10.557,-3.953 14.509,-7.496 3.948,-3.549 7.014,-8.186 9.189,-13.906 2.177,-5.725 3.265,-12.779 3.265,-21.161 0,-8.384 -1.088,-15.397 -3.265,-21.039 -2.175,-5.645 -5.241,-10.157 -9.189,-13.543 -3.952,-3.385 -8.789,-5.804 -14.509,-7.254 -5.725,-1.452 -12.055,-2.177 -18.985,-2.177 H 0 Z"
                 style="fill:#09a14a;fill-opacity:1;fill-rule:nonzero;stroke:none"
                 id="path74"
                 inkscape:connector-curvature="0" /></g><g
               id="g76"
               transform="matrix(0.86583,0,0,0.86583,959.8825,598.45717)"
               inkscape:export-xdpi="10.067767"
               inkscape:export-ydpi="10.067767"><path
                 d="m 0,0 c -7.658,2.497 -14.351,6.65 -20.071,12.455 -5.725,5.803 -10.241,13.338 -13.544,22.611 -3.306,9.269 -4.957,20.676 -4.957,34.219 0,13.543 1.651,24.947 4.957,34.22 3.303,9.268 7.819,16.765 13.544,22.49 5.72,5.721 12.413,9.832 20.071,12.334 7.656,2.497 15.84,3.748 24.546,3.748 H 79.444 V 110.881 H 28.658 c -4.354,0 -8.465,-0.647 -12.334,-1.935 C 12.455,107.653 9.069,105.398 6.167,102.175 3.265,98.948 0.968,94.678 -0.726,89.358 -2.418,84.037 -3.265,77.345 -3.265,69.285 c 0,-8.064 0.847,-14.794 2.539,-20.193 1.694,-5.403 3.991,-9.674 6.893,-12.817 2.902,-3.143 6.288,-5.362 10.157,-6.65 3.869,-1.292 7.98,-1.936 12.334,-1.936 H 79.444 V -3.749 H 24.546 C 15.84,-3.749 7.656,-2.501 0,0"
                 style="fill:#09a14a;fill-opacity:1;fill-rule:nonzero;stroke:none"
                 id="path78"
                 inkscape:connector-curvature="0" /></g><g
               id="g80"
               transform="matrix(0.86583,0,0,0.86583,1102.163,619.29086)"
               inkscape:export-xdpi="10.067767"
               inkscape:export-ydpi="10.067767"><path
                 d="m 0,0 c 4.995,0 9.674,0.726 14.026,2.177 4.353,1.45 8.139,3.948 11.366,7.497 3.223,3.543 5.763,8.18 7.618,13.904 1.851,5.721 2.781,12.939 2.781,21.645 0,8.706 -0.93,15.92 -2.781,21.644 -1.855,5.721 -4.395,10.316 -7.618,13.785 -3.227,3.464 -7.013,5.925 -11.366,7.375 C 9.674,89.479 4.995,90.204 0,90.204 c -4.999,0 -9.673,-0.725 -14.026,-2.177 -4.353,-1.45 -8.144,-3.911 -11.367,-7.375 -3.227,-3.469 -5.767,-8.064 -7.618,-13.785 -1.856,-5.724 -2.782,-12.938 -2.782,-21.644 0,-8.706 0.926,-15.924 2.782,-21.645 1.851,-5.724 4.391,-10.361 7.618,-13.904 3.223,-3.549 7.014,-6.047 11.367,-7.497 C -9.673,0.726 -4.999,0 0,0 m -71.1,45.223 c 0,14.026 1.847,25.876 5.55,35.549 3.705,9.674 8.771,17.534 15.211,23.579 6.438,6.047 13.961,10.437 22.573,13.181 8.611,2.739 17.828,4.111 27.644,4.111 9.659,0 18.792,-1.372 27.403,-4.111 8.609,-2.744 16.173,-7.134 22.692,-13.181 6.518,-6.045 11.668,-13.905 15.451,-23.579 3.783,-9.673 5.675,-21.523 5.675,-35.549 0,-14.027 -1.892,-25.918 -5.675,-35.671 -3.783,-9.756 -8.933,-17.654 -15.451,-23.699 -6.519,-6.046 -14.083,-10.399 -22.692,-13.06 -8.611,-2.66 -17.744,-3.989 -27.403,-3.989 -9.816,0 -19.033,1.329 -27.644,3.989 -8.612,2.661 -16.135,7.014 -22.573,13.06 -6.44,6.045 -11.506,13.943 -15.211,23.699 -3.703,9.753 -5.55,21.644 -5.55,35.671"
                 style="fill:#09a14a;fill-opacity:1;fill-rule:nonzero;stroke:none"
                 id="path82"
                 inkscape:connector-curvature="0" /></g><g
               id="g84"
               transform="matrix(0.86583,0,0,0.86583,1236.2761,622.43149)"
               inkscape:export-xdpi="10.067767"
               inkscape:export-ydpi="10.067767"><path
                 d="m 0,0 c 4.334,0 8.43,0.643 12.285,1.935 3.854,1.288 7.186,3.507 9.997,6.651 2.811,3.143 5.06,7.414 6.745,12.817 1.686,5.399 2.532,12.129 2.532,20.193 0,8.06 -0.846,14.752 -2.532,20.072 -1.685,5.321 -3.934,9.59 -6.745,12.817 -2.811,3.223 -6.143,5.479 -9.997,6.772 C 8.43,82.545 4.334,83.191 0,83.191 H -31.802 V 0 Z M -31.802,-78.354 H -67.111 V 114.388 H 3.748 c 8.705,0 16.887,-1.251 24.545,-3.749 7.656,-2.501 14.349,-6.612 20.073,-12.333 5.721,-5.725 10.237,-13.222 13.543,-22.491 3.303,-9.272 4.958,-20.677 4.958,-34.219 0,-13.543 -1.651,-24.95 -4.946,-34.22 -3.299,-9.272 -7.803,-16.808 -13.509,-22.611 -5.71,-5.804 -12.383,-9.957 -20.024,-12.454 -7.639,-2.502 -15.802,-3.749 -24.485,-3.749 h -35.705 z"
                 style="fill:#09a14a;fill-opacity:1;fill-rule:nonzero;stroke:none"
                 id="path86"
                 inkscape:connector-curvature="0" /></g><g
               id="g88"
               transform="matrix(0.86583,0,0,0.86583,1335.5246,598.45717)"
               inkscape:export-xdpi="10.067767"
               inkscape:export-ydpi="10.067767"><path
                 d="m 0,0 c -7.659,2.497 -14.351,6.65 -20.071,12.455 -5.725,5.803 -10.241,13.338 -13.544,22.611 -3.306,9.269 -4.958,20.676 -4.958,34.219 0,13.543 1.652,24.947 4.958,34.22 3.303,9.268 7.819,16.765 13.544,22.49 5.72,5.721 12.412,9.832 20.071,12.334 7.656,2.497 15.84,3.748 24.546,3.748 H 79.444 V 110.881 H 28.658 c -7.255,0 -13.626,-1.898 -19.105,-5.683 C 4.071,101.407 0.28,94.678 -1.814,85.005 H 79.444 V 53.565 H -1.814 c 0.968,-4.999 2.419,-9.152 4.353,-12.453 1.936,-3.307 4.233,-5.967 6.893,-7.98 2.661,-2.019 5.6,-3.428 8.827,-4.233 3.223,-0.808 6.688,-1.21 10.399,-1.21 H 79.444 V -3.749 H 24.546 C 15.84,-3.749 7.656,-2.501 0,0"
                 style="fill:#09a14a;fill-opacity:1;fill-rule:nonzero;stroke:none"
                 id="path90"
                 inkscape:connector-curvature="0" /></g></g><text
             inkscape:export-ydpi="7.5692205"
             inkscape:export-xdpi="7.5692205"
             transform="scale(1,-1)"
             id="text50"
             y="-609.83002"
             x="1317.8716"
             style="font-style:normal;font-variant:normal;font-weight:bold;font-stretch:normal;font-size:196.87509155px;line-height:1.25;font-family:Raleway;-inkscape-font-specification:'Raleway, Bold';font-variant-ligatures:normal;font-variant-caps:small-caps;font-variant-numeric:normal;font-feature-settings:normal;text-align:start;letter-spacing:0px;word-spacing:0px;writing-mode:lr-tb;text-anchor:start;fill:#0a497b;fill-opacity:1;stroke:none;stroke-width:1.02539194"
             xml:space="preserve"><tspan
               style="font-style:normal;font-variant:normal;font-weight:normal;font-stretch:condensed;font-size:196.875px;font-family:'Cabin Condensed';-inkscape-font-specification:'Cabin Condensed, Condensed';font-variant-ligatures:normal;font-variant-caps:small-caps;font-variant-numeric:normal;font-feature-settings:normal;text-align:start;writing-mode:lr-tb;text-anchor:start;stroke-width:1.02539194"
               y="-609.83002"
               x="1317.8716"
               id="tspan4551"
               sodipodi:role="line">Academy</tspan></text>
</g><g
           id="g1051"
           transform="matrix(0.62590826,0,0,0.62590826,-574.5826,256.25098)"
           inkscape:export-xdpi="55.536663"
           inkscape:export-ydpi="55.536663"><g
             id="g3690"
             transform="translate(1135.2115,906.52027)"><path
               inkscape:connector-curvature="0"
               d="m 0,0 -66.379,-115.732 7.82,-146.132 111.606,-140.212 118.113,8.378 77.848,100.044 46.995,110.621 V -52.454 L 168.185,18.838 Z"
               style="fill:#ffffff;fill-opacity:1;fill-rule:nonzero;stroke:none"
               id="path3692" /></g><g
             id="g3702"
             transform="translate(1043.7284,939.81067)"><path
               inkscape:connector-curvature="0"
               d="m 0,0 c -0.128,-101.768 0.021,-203.535 -0.085,-305.303 -0.085,-12.628 2.619,-25.149 6.516,-37.117 11.861,-35.498 35.69,-66.035 64.523,-89.438 42.398,-34.306 88.5,-65.29 136.009,-92.079 51.981,20.827 97.914,53.024 139.162,90.631 33.965,32.049 63.139,73.744 66.844,121.551 0.256,103.875 -0.106,207.773 0.15,311.67 -66.845,14.374 -133.774,28.343 -200.64,42.589 -3.577,0.767 -7.304,1.172 -10.903,0.277 C 134.391,28.492 67.164,14.374 0,0 m -23.658,23.446 c 73.828,15.502 147.615,31.239 221.401,46.891 3.429,0.766 6.985,0.724 10.435,-0.107 73.637,-15.822 154.602,-31.112 228.239,-46.976 -0.127,-113.842 0.022,-227.684 -0.106,-341.526 -2.513,-41.099 -23.893,-78.535 -49.851,-109.455 -39.736,-43.697 -87.99,-79.28 -140.12,-106.814 -10.519,-5.367 -21.082,-10.797 -32.112,-15.056 -6.272,-1.722 -11.238,-1.22 -21.212,3.471 -49.17,28.237 -95.805,60.818 -139.843,96.508 -33.369,27.577 -60.882,63.821 -72.36,106.027 -3.087,11.009 -4.919,22.423 -4.663,33.901 0.17,111.031 -0.234,222.083 0.192,333.136"
               style="fill:#0e497b;fill-opacity:1;fill-rule:nonzero;stroke:none"
               id="path3704" /></g><g
             id="g3706"
             transform="translate(1150.4152,600.35074)"><path
               inkscape:connector-curvature="0"
               d="m 0,0 c 16.908,-19.783 33.369,-39.992 48.808,-60.967 33.88,0.107 67.781,-0.064 101.661,0.085 16.014,21.721 34.263,41.695 50.234,63.416 0.682,6.836 0.384,13.735 1.001,20.592 C 178.621,12.138 154.664,2.47 129.302,-1.576 84.945,-9.71 39.885,3.578 0.021,22.551 -0.383,15.055 -1.256,7.453 0,0 m 205.282,206.431 c -0.022,-26.192 0.425,-52.385 -0.086,-78.556 -30.515,-15.907 -62.904,-30.43 -97.594,-33.454 -39.757,-1.618 -77.747,14.885 -111.627,34.178 -0.809,25.852 -0.383,51.789 -0.127,77.683 -13.778,-3.641 -27.066,-9.263 -38.991,-17.078 -16.12,-10.179 -29.77,-26.895 -30.579,-46.636 -0.405,-26.469 8.092,-53.109 24.361,-74.063 C -29.515,43.441 -0.575,27.449 29.153,16.951 59.029,6.516 90.971,-1.81 122.807,2.854 c 36.989,5.472 72.935,20.144 102.279,43.526 21.955,17.078 39.714,40.843 45.72,68.335 3.726,19.357 3.492,40.928 -7.219,58.156 -12.415,19.932 -35.499,31.026 -58.305,33.56 m -104.004,66.973 c -13.182,1.277 -25.149,7.9 -38.203,10.008 -17.398,3.301 -34.966,-5.175 -46.976,-17.398 -6.708,-6.942 -13.714,-15.076 -14.161,-25.213 -2.3,-22.828 1.363,-45.656 0.703,-68.526 25.191,-14.31 51.661,-27.62 80.451,-32.666 23.723,-3.897 47.551,2.363 69.634,10.711 15.396,6.26 30.707,13.117 44.783,22.019 2.513,16.12 0.681,32.836 1.022,49.19 -0.532,14.353 1.491,30.537 -7.56,42.782 -9.923,11.052 -23.53,19.825 -38.586,21.209 -17.61,-1.064 -33.539,-10.605 -51.107,-12.116 m -20.102,89.118 c 7.921,1.427 15.992,4.642 24.105,2.726 61.436,-12.99 122.829,-26.065 184.264,-38.991 0.128,-98.126 -0.043,-196.274 0.064,-294.421 0.298,-18.484 -6.516,-36.052 -14.566,-52.385 -12.947,-25.98 -32.41,-48.169 -54.174,-67.185 -33.901,-30.899 -72.849,-56.048 -114.246,-75.703 -2.513,-0.873 -5.302,-3.152 -7.922,-1.278 -31.133,17.994 -61.307,37.713 -90.162,59.221 -25.298,18.909 -51.065,38.202 -69.868,63.99 -16.759,23.829 -30.196,52.087 -28.705,81.9 0.149,95.316 -0.171,190.652 0.17,285.968 57.07,11.776 114.012,24.169 171.04,36.158"
               style="fill:#0e497b;fill-opacity:1;fill-rule:nonzero;stroke:none"
               id="path3708" /></g><g
             id="g3710"
             transform="translate(1293.2818,875.67087)"><path
               inkscape:connector-curvature="0"
               d="M 0,0 C 3.13,1.597 6.687,1.64 10.115,1.959 9.497,-2.683 4.536,-3.152 1.15,-4.898 -13.011,-10.264 -22.509,-22.572 -34.348,-31.346 -26.831,-17.398 -14.161,-6.772 0,0"
               style="fill:#0e497b;fill-opacity:1;fill-rule:nonzero;stroke:none"
               id="path3712" /></g><g
             id="g3714"
             transform="translate(1207.2935,844.66567)"><path
               inkscape:connector-curvature="0"
               d="m 0,0 c 14.076,-6.367 23.211,-19.676 29.898,-33.071 6.516,-13.863 7.07,-29.45 6.878,-44.485 -2.832,-0.574 -5.707,-1.043 -8.582,-0.511 0.98,21.146 -1.064,43.697 -13.543,61.542 C 10.243,-10.605 4.664,-5.686 0,0"
               style="fill:#0e497b;fill-opacity:1;fill-rule:nonzero;stroke:none"
               id="path3716" /></g><g
             id="g3718"
             transform="translate(1259.7,809.63577)"><path
               inkscape:connector-curvature="0"
               d="M 0,0 C 6.857,13.756 16.312,27.172 30.579,33.944 22.061,25.085 13.118,16.056 8.731,4.302 1.725,-11.158 1.618,-28.343 1.767,-44.975 c -2.768,0.192 -5.536,0.384 -8.305,0.554 C -6.9,-29.408 -6.261,-13.905 0,0"
               style="fill:#0e497b;fill-opacity:1;fill-rule:nonzero;stroke:none"
               id="path3720" /></g><g
             id="g3722"
             transform="translate(1124.1162,789.08627)"><path
               inkscape:connector-curvature="0"
               d="m 0,0 c 3.578,1.278 7.411,2.215 11.201,1.235 -9.519,-6.963 -21.465,-9.817 -30.579,-17.376 -7.794,-6.623 -10.456,-16.866 -13.821,-26.087 -3.023,3.493 -1.086,8.412 0.128,12.245 C -27.066,-15.779 -14.331,-5.196 0,0"
               style="fill:#0e497b;fill-opacity:1;fill-rule:nonzero;stroke:none"
               id="path3724" /></g><g
             id="g3726"
             transform="translate(1259.6573,678.33217)"><path
               inkscape:connector-curvature="0"
               d="M 0,0 C 32.9,2.215 66.78,9.54 93.441,30.047 89.843,19.123 82.177,9.412 71.465,4.791 49.063,-5.26 23.68,-3.194 0,0"
               style="fill:#0e497b;fill-opacity:1;fill-rule:nonzero;stroke:none"
               id="path3728" /></g></g></g></g></g></svg>