<?xml version="1.0" encoding="UTF-8" standalone="no"?>
<!-- Created with Inkscape (http://www.inkscape.org/) -->

<svg
   xmlns:dc="http://purl.org/dc/elements/1.1/"
   xmlns:cc="http://creativecommons.org/ns#"
   xmlns:rdf="http://www.w3.org/1999/02/22-rdf-syntax-ns#"
   xmlns:svg="http://www.w3.org/2000/svg"
   xmlns="http://www.w3.org/2000/svg"
   xmlns:sodipodi="http://sodipodi.sourceforge.net/DTD/sodipodi-0.dtd"
   xmlns:inkscape="http://www.inkscape.org/namespaces/inkscape"
   version="1.1"
   id="svg2"
   xml:space="preserve"
   width="3333.3333"
   height="1866.6667"
   viewBox="0 0 3333.3333 1866.6667"
   sodipodi:docname="Cybersope Academy Logo - Vertical.svg"
   inkscape:version="0.92.1 r15371"><metadata
     id="metadata8"><rdf:RDF><cc:Work
         rdf:about=""><dc:format>image/svg+xml</dc:format><dc:type
           rdf:resource="http://purl.org/dc/dcmitype/StillImage" /><dc:title></dc:title></cc:Work></rdf:RDF></metadata><defs
     id="defs6"><marker
       inkscape:stockid="Arrow1Lstart"
       orient="auto"
       refY="0.0"
       refX="0.0"
       id="marker1148"
       style="overflow:visible"
       inkscape:isstock="true"><path
         id="path1146"
         d="M 0.0,0.0 L 5.0,-5.0 L -12.5,0.0 L 5.0,5.0 L 0.0,0.0 z "
         style="fill-rule:evenodd;stroke:#000000;stroke-width:1.0pt"
         transform="scale(0.8) translate(12.5,0)" /></marker><marker
       inkscape:stockid="Arrow1Lstart"
       orient="auto"
       refY="0.0"
       refX="0.0"
       id="marker1132"
       style="overflow:visible"
       inkscape:isstock="true"><path
         id="path1130"
         d="M 0.0,0.0 L 5.0,-5.0 L -12.5,0.0 L 5.0,5.0 L 0.0,0.0 z "
         style="fill-rule:evenodd;stroke:#000000;stroke-width:1.0pt"
         transform="scale(0.8) translate(12.5,0)" /></marker><marker
       inkscape:stockid="Arrow1Lstart"
       orient="auto"
       refY="0.0"
       refX="0.0"
       id="Arrow1Lstart"
       style="overflow:visible"
       inkscape:isstock="true"><path
         id="path860"
         d="M 0.0,0.0 L 5.0,-5.0 L -12.5,0.0 L 5.0,5.0 L 0.0,0.0 z "
         style="fill-rule:evenodd;stroke:#000000;stroke-width:1.0pt"
         transform="scale(0.8) translate(12.5,0)" /></marker><clipPath
       clipPathUnits="userSpaceOnUse"
       id="clipPath22"><path
         d="M 0,1400 H 2500 V 0 H 0 Z"
         id="path20"
         inkscape:connector-curvature="0" /></clipPath></defs><sodipodi:namedview
     pagecolor="#ffffff"
     bordercolor="#666666"
     borderopacity="1"
     objecttolerance="10"
     gridtolerance="10"
     guidetolerance="10"
     inkscape:pageopacity="0"
     inkscape:pageshadow="2"
     inkscape:window-width="1366"
     inkscape:window-height="706"
     id="namedview4"
     showgrid="false"
     inkscape:measure-start="423.302,1288.19"
     inkscape:measure-end="423.263,921.268"
     inkscape:zoom="0.17421743"
     inkscape:cx="1057.5954"
     inkscape:cy="818.44594"
     inkscape:window-x="-8"
     inkscape:window-y="-8"
     inkscape:window-maximized="1"
     inkscape:current-layer="g18" /><g
     id="g10"
     inkscape:groupmode="layer"
     inkscape:label="New_vector"
     transform="matrix(1.3333333,0,0,-1.3333333,0,1866.6667)"><g
       id="g16"><g
         id="g18"
         clip-path="url(#clipPath22)"><g
           id="g1188"
           transform="translate(500.71054,107.62414)"
           inkscape:export-filename="C:\Users\ianp\Documents\cyberscope_site\img_NOT_used\Cyberscope Logo\g1188.png"
           inkscape:export-xdpi="9.2580557"
           inkscape:export-ydpi="9.2580557"><g
             inkscape:export-ydpi="15.820777"
             inkscape:export-xdpi="15.820777"
             transform="matrix(0.86583,0,0,0.86583,183.79825,600.75283)"
             id="g52"><path
               inkscape:connector-curvature="0"
               id="path54"
               style="fill:#09a14a;fill-opacity:1;fill-rule:nonzero;stroke:none"
               d="m 0,0 c -12.687,4.265 -23.758,11.184 -33.213,20.758 -9.46,9.568 -16.952,22.023 -22.488,37.364 -5.535,15.336 -8.303,34.191 -8.303,56.565 0,22.369 2.768,41.283 8.303,56.738 5.536,15.45 13.028,27.905 22.488,37.365 9.455,9.454 20.526,16.314 33.213,20.585 12.682,4.265 26.174,6.4 40.478,6.4 h 90.643 v -47.051 h -84.07 c -7.843,0 -15.222,-1.157 -22.142,-3.46 -6.919,-2.308 -12.973,-6.287 -18.163,-11.936 -5.189,-5.654 -9.287,-13.265 -12.281,-22.834 -3.001,-9.573 -4.498,-21.509 -4.498,-35.807 0,-14.303 1.497,-26.179 4.498,-35.634 2.994,-9.46 7.092,-17.071 12.281,-22.834 5.19,-5.767 11.244,-9.805 18.163,-12.108 6.92,-2.309 14.299,-3.46 22.142,-3.46 h 84.07 V -6.4 H 40.478 C 26.174,-6.4 12.682,-4.271 0,0" /></g><g
             inkscape:export-ydpi="15.820777"
             inkscape:export-xdpi="15.820777"
             transform="matrix(0.86583,0,0,0.86583,379.15234,581.60059)"
             id="g56"><path
               inkscape:connector-curvature="0"
               id="path58"
               style="fill:#09a14a;fill-opacity:1;fill-rule:nonzero;stroke:none"
               d="m 0,0 c 5.803,0 10.882,1.172 15.235,3.507 4.353,2.339 6.772,6.408 7.255,12.213 h -35.792 c -8.706,0 -16.648,0.967 -23.82,2.901 -7.176,1.936 -13.301,5.117 -18.38,9.554 -5.079,4.432 -9.031,10.195 -11.849,17.291 -2.823,7.092 -4.233,15.798 -4.233,26.118 v 89.962 h 35.308 V 71.584 c 0,-9.19 2.335,-15.561 7.014,-19.105 4.674,-3.548 11.365,-5.321 20.072,-5.321 H 22.49 V 161.546 H 57.798 V 18.138 c 0,-9.19 -1.292,-16.928 -3.869,-23.217 -2.581,-6.286 -6.087,-11.365 -10.52,-15.234 -4.436,-3.869 -9.635,-6.651 -15.598,-8.344 -5.967,-1.693 -12.334,-2.539 -19.105,-2.539 H -62.152 V 0 Z" /></g><g
             inkscape:export-ydpi="15.820777"
             inkscape:export-xdpi="15.820777"
             transform="matrix(0.86583,0,0,0.86583,507.61148,622.43149)"
             id="g60"><path
               inkscape:connector-curvature="0"
               id="path62"
               style="fill:#09a14a;fill-opacity:1;fill-rule:nonzero;stroke:none"
               d="m 0,0 c 4.334,0 8.43,0.643 12.284,1.935 3.855,1.288 7.187,3.507 9.998,6.651 2.811,3.143 5.06,7.414 6.745,12.817 1.686,5.399 2.532,12.129 2.532,20.193 0,8.06 -0.846,14.752 -2.532,20.072 -1.685,5.321 -3.934,9.59 -6.745,12.817 -2.811,3.223 -6.143,5.479 -9.998,6.772 C 8.43,82.545 4.334,83.191 0,83.191 H -31.802 V 0 Z m -67.111,161.304 h 35.309 V 114.388 H 3.903 c 8.683,0 16.845,-1.251 24.485,-3.749 7.641,-2.501 14.314,-6.612 20.024,-12.333 5.706,-5.725 10.21,-13.222 13.509,-22.491 3.295,-9.272 4.946,-20.677 4.946,-34.219 0,-13.543 -1.655,-24.95 -4.958,-34.22 -3.306,-9.272 -7.822,-16.808 -13.543,-22.611 -5.724,-5.804 -12.417,-9.957 -20.072,-12.454 -7.659,-2.502 -15.841,-3.749 -24.547,-3.749 h -70.858 z" /></g><g
             inkscape:export-ydpi="15.820777"
             inkscape:export-xdpi="15.820777"
             transform="matrix(0.86583,0,0,0.86583,606.85992,598.45717)"
             id="g64"><path
               inkscape:connector-curvature="0"
               id="path66"
               style="fill:#09a14a;fill-opacity:1;fill-rule:nonzero;stroke:none"
               d="m 0,0 c -7.658,2.497 -14.351,6.65 -20.071,12.455 -5.725,5.803 -10.241,13.338 -13.544,22.611 -3.306,9.269 -4.957,20.676 -4.957,34.219 0,13.543 1.651,24.947 4.957,34.22 3.303,9.268 7.819,16.765 13.544,22.49 5.72,5.721 12.413,9.832 20.071,12.334 7.656,2.497 15.84,3.748 24.546,3.748 H 79.444 V 110.881 H 28.658 c -7.255,0 -13.626,-1.898 -19.105,-5.683 C 4.071,101.407 0.28,94.678 -1.814,85.005 H 79.444 V 53.565 H -1.814 c 0.968,-4.999 2.419,-9.152 4.353,-12.453 1.936,-3.307 4.233,-5.967 6.893,-7.98 2.661,-2.019 5.6,-3.428 8.827,-4.233 3.223,-0.808 6.688,-1.21 10.399,-1.21 H 79.444 V -3.749 H 24.546 C 15.84,-3.749 7.656,-2.501 0,0" /></g><g
             inkscape:export-ydpi="15.820777"
             inkscape:export-xdpi="15.820777"
             transform="matrix(0.86583,0,0,0.86583,693.85861,673.31242)"
             id="g68"><path
               inkscape:connector-curvature="0"
               id="path70"
               style="fill:#09a14a;fill-opacity:1;fill-rule:nonzero;stroke:none"
               d="m 0,0 c 0,10.317 1.651,19.023 4.957,26.118 3.303,7.093 7.818,12.817 13.543,17.171 5.722,4.353 12.372,7.496 19.952,9.432 7.576,1.934 15.719,2.901 24.425,2.901 h 47.642 V -5.561 H 75.211 v 29.987 h -8.222 c -4.353,0 -8.465,-0.405 -12.334,-1.21 C 50.785,22.408 47.438,21.04 44.619,19.105 41.796,17.171 39.54,14.632 37.847,11.487 36.155,8.344 35.307,4.512 35.307,0 V -90.204 H 0 Z" /></g><g
             inkscape:export-ydpi="15.820777"
             inkscape:export-xdpi="15.820777"
             transform="matrix(0.86583,0,0,0.86583,806.29893,622.43149)"
             id="g72"><path
               inkscape:connector-curvature="0"
               id="path74"
               style="fill:#09a14a;fill-opacity:1;fill-rule:nonzero;stroke:none"
               d="m 0,0 h 76.179 c 4.511,0 8.422,0.926 11.729,2.781 3.303,1.852 4.957,5.117 4.957,9.794 0,4.996 -1.654,8.464 -4.957,10.399 -3.307,1.935 -7.218,2.902 -11.729,2.902 H 41.838 c -7.097,0 -13.463,0.726 -19.106,2.177 -5.645,1.451 -10.439,3.907 -14.388,7.376 -3.953,3.465 -7.013,8.018 -9.19,13.663 -2.177,5.642 -3.265,12.734 -3.265,21.282 0,8.382 1.088,15.394 3.265,21.039 2.177,5.642 5.237,10.158 9.19,13.543 3.949,3.386 8.743,5.804 14.388,7.255 5.643,1.452 12.009,2.177 19.106,2.177 h 80.047 V 83.191 H 45.708 c -4.679,0 -8.669,-0.967 -11.971,-2.902 -3.307,-1.935 -4.958,-5.24 -4.958,-9.915 0,-4.999 1.651,-8.426 4.958,-10.277 3.302,-1.856 7.292,-2.782 11.971,-2.782 h 34.34 c 6.93,0 13.26,-0.725 18.985,-2.177 5.72,-1.451 10.557,-3.953 14.509,-7.496 3.948,-3.549 7.014,-8.186 9.189,-13.906 2.177,-5.725 3.265,-12.779 3.265,-21.161 0,-8.384 -1.088,-15.397 -3.265,-21.039 -2.175,-5.645 -5.241,-10.157 -9.189,-13.543 -3.952,-3.385 -8.789,-5.804 -14.509,-7.254 -5.725,-1.452 -12.055,-2.177 -18.985,-2.177 H 0 Z" /></g><g
             inkscape:export-ydpi="15.820777"
             inkscape:export-xdpi="15.820777"
             transform="matrix(0.86583,0,0,0.86583,959.8825,598.45717)"
             id="g76"><path
               inkscape:connector-curvature="0"
               id="path78"
               style="fill:#09a14a;fill-opacity:1;fill-rule:nonzero;stroke:none"
               d="m 0,0 c -7.658,2.497 -14.351,6.65 -20.071,12.455 -5.725,5.803 -10.241,13.338 -13.544,22.611 -3.306,9.269 -4.957,20.676 -4.957,34.219 0,13.543 1.651,24.947 4.957,34.22 3.303,9.268 7.819,16.765 13.544,22.49 5.72,5.721 12.413,9.832 20.071,12.334 7.656,2.497 15.84,3.748 24.546,3.748 H 79.444 V 110.881 H 28.658 c -4.354,0 -8.465,-0.647 -12.334,-1.935 C 12.455,107.653 9.069,105.398 6.167,102.175 3.265,98.948 0.968,94.678 -0.726,89.358 -2.418,84.037 -3.265,77.345 -3.265,69.285 c 0,-8.064 0.847,-14.794 2.539,-20.193 1.694,-5.403 3.991,-9.674 6.893,-12.817 2.902,-3.143 6.288,-5.362 10.157,-6.65 3.869,-1.292 7.98,-1.936 12.334,-1.936 H 79.444 V -3.749 H 24.546 C 15.84,-3.749 7.656,-2.501 0,0" /></g><g
             inkscape:export-ydpi="15.820777"
             inkscape:export-xdpi="15.820777"
             transform="matrix(0.86583,0,0,0.86583,1102.163,619.29086)"
             id="g80"><path
               inkscape:connector-curvature="0"
               id="path82"
               style="fill:#09a14a;fill-opacity:1;fill-rule:nonzero;stroke:none"
               d="m 0,0 c 4.995,0 9.674,0.726 14.026,2.177 4.353,1.45 8.139,3.948 11.366,7.497 3.223,3.543 5.763,8.18 7.618,13.904 1.851,5.721 2.781,12.939 2.781,21.645 0,8.706 -0.93,15.92 -2.781,21.644 -1.855,5.721 -4.395,10.316 -7.618,13.785 -3.227,3.464 -7.013,5.925 -11.366,7.375 C 9.674,89.479 4.995,90.204 0,90.204 c -4.999,0 -9.673,-0.725 -14.026,-2.177 -4.353,-1.45 -8.144,-3.911 -11.367,-7.375 -3.227,-3.469 -5.767,-8.064 -7.618,-13.785 -1.856,-5.724 -2.782,-12.938 -2.782,-21.644 0,-8.706 0.926,-15.924 2.782,-21.645 1.851,-5.724 4.391,-10.361 7.618,-13.904 3.223,-3.549 7.014,-6.047 11.367,-7.497 C -9.673,0.726 -4.999,0 0,0 m -71.1,45.223 c 0,14.026 1.847,25.876 5.55,35.549 3.705,9.674 8.771,17.534 15.211,23.579 6.438,6.047 13.961,10.437 22.573,13.181 8.611,2.739 17.828,4.111 27.644,4.111 9.659,0 18.792,-1.372 27.403,-4.111 8.609,-2.744 16.173,-7.134 22.692,-13.181 6.518,-6.045 11.668,-13.905 15.451,-23.579 3.783,-9.673 5.675,-21.523 5.675,-35.549 0,-14.027 -1.892,-25.918 -5.675,-35.671 -3.783,-9.756 -8.933,-17.654 -15.451,-23.699 -6.519,-6.046 -14.083,-10.399 -22.692,-13.06 -8.611,-2.66 -17.744,-3.989 -27.403,-3.989 -9.816,0 -19.033,1.329 -27.644,3.989 -8.612,2.661 -16.135,7.014 -22.573,13.06 -6.44,6.045 -11.506,13.943 -15.211,23.699 -3.703,9.753 -5.55,21.644 -5.55,35.671" /></g><g
             inkscape:export-ydpi="15.820777"
             inkscape:export-xdpi="15.820777"
             transform="matrix(0.86583,0,0,0.86583,1236.2761,622.43149)"
             id="g84"><path
               inkscape:connector-curvature="0"
               id="path86"
               style="fill:#09a14a;fill-opacity:1;fill-rule:nonzero;stroke:none"
               d="m 0,0 c 4.334,0 8.43,0.643 12.285,1.935 3.854,1.288 7.186,3.507 9.997,6.651 2.811,3.143 5.06,7.414 6.745,12.817 1.686,5.399 2.532,12.129 2.532,20.193 0,8.06 -0.846,14.752 -2.532,20.072 -1.685,5.321 -3.934,9.59 -6.745,12.817 -2.811,3.223 -6.143,5.479 -9.997,6.772 C 8.43,82.545 4.334,83.191 0,83.191 H -31.802 V 0 Z M -31.802,-78.354 H -67.111 V 114.388 H 3.748 c 8.705,0 16.887,-1.251 24.545,-3.749 7.656,-2.501 14.349,-6.612 20.073,-12.333 5.721,-5.725 10.237,-13.222 13.543,-22.491 3.303,-9.272 4.958,-20.677 4.958,-34.219 0,-13.543 -1.651,-24.95 -4.946,-34.22 -3.299,-9.272 -7.803,-16.808 -13.509,-22.611 -5.71,-5.804 -12.383,-9.957 -20.024,-12.454 -7.639,-2.502 -15.802,-3.749 -24.485,-3.749 h -35.705 z" /></g><g
             inkscape:export-ydpi="15.820777"
             inkscape:export-xdpi="15.820777"
             transform="matrix(0.86583,0,0,0.86583,1335.5246,598.45717)"
             id="g88"><path
               inkscape:connector-curvature="0"
               id="path90"
               style="fill:#09a14a;fill-opacity:1;fill-rule:nonzero;stroke:none"
               d="m 0,0 c -7.659,2.497 -14.351,6.65 -20.071,12.455 -5.725,5.803 -10.241,13.338 -13.544,22.611 -3.306,9.269 -4.958,20.676 -4.958,34.219 0,13.543 1.652,24.947 4.958,34.22 3.303,9.268 7.819,16.765 13.544,22.49 5.72,5.721 12.412,9.832 20.071,12.334 7.656,2.497 15.84,3.748 24.546,3.748 H 79.444 V 110.881 H 28.658 c -7.255,0 -13.626,-1.898 -19.105,-5.683 C 4.071,101.407 0.28,94.678 -1.814,85.005 H 79.444 V 53.565 H -1.814 c 0.968,-4.999 2.419,-9.152 4.353,-12.453 1.936,-3.307 4.233,-5.967 6.893,-7.98 2.661,-2.019 5.6,-3.428 8.827,-4.233 3.223,-0.808 6.688,-1.21 10.399,-1.21 H 79.444 V -3.749 H 24.546 C 15.84,-3.749 7.656,-2.501 0,0" /></g></g><g
           id="g96"
           transform="matrix(0.86583,0,0,0.86583,2626.0504,791.87953)"
           inkscape:export-xdpi="9.2580557"
           inkscape:export-ydpi="9.2580557"
           inkscape:export-filename="C:\Users\ianp\Documents\cyberscope_site\img_NOT_used\Cyberscope Logo\g1188.png" /><text
           xml:space="preserve"
           style="font-style:normal;font-variant:normal;font-weight:bold;font-stretch:normal;font-size:222.96636963px;line-height:1.25;font-family:Raleway;-inkscape-font-specification:'Raleway, Bold';font-variant-ligatures:normal;font-variant-caps:small-caps;font-variant-numeric:normal;font-feature-settings:normal;text-align:start;letter-spacing:0px;word-spacing:0px;writing-mode:lr-tb;text-anchor:start;fill:#0a497b;fill-opacity:1;stroke:none;stroke-width:1.16128409"
           x="781.83258"
           y="-485.89728"
           id="text50"
           transform="scale(1,-1)"
           inkscape:export-xdpi="9.2580557"
           inkscape:export-ydpi="9.2580557"
           inkscape:export-filename="C:\Users\ianp\Documents\cyberscope_site\img_NOT_used\Cyberscope Logo\g1188.png"><tspan
             sodipodi:role="line"
             id="tspan48"
             x="781.83258"
             y="-485.89728"
             style="font-style:normal;font-variant:normal;font-weight:bold;font-stretch:normal;font-size:222.96636963px;font-family:Raleway;-inkscape-font-specification:'Raleway, Bold';font-variant-ligatures:normal;font-variant-caps:small-caps;font-variant-numeric:normal;font-feature-settings:normal;text-align:start;writing-mode:lr-tb;text-anchor:start;fill:#0a497b;fill-opacity:1;stroke-width:1.16128409">Academy</tspan></text>
</g></g></g></svg>